<mxfile host="app.diagrams.net" modified="2024-04-25T21:03:38.035Z" agent="Mozilla/5.0 (X11; Linux x86_64) AppleWebKit/537.36 (KHTML, like Gecko) Chrome/122.0.0.0 Safari/537.36" version="24.3.0" etag="yyduDKecVg_0YoLeeU8s" type="github">
  <diagram name="Page-1" id="D2sELlWxLl_3wWGp6vWg">
    <mxGraphModel>
      <root>
        <mxCell id="0" />
        <mxCell id="1" parent="0" />
      </root>
    </mxGraphModel>
  </diagram>
</mxfile>
